<svg xmlns="http://www.w3.org/2000/svg" width="42.266" height="39.428"
                            viewBox="0 0 42.266 39.428">
                            <g id="Сгруппировать_93" data-name="Сгруппировать 93"
                                transform="translate(520.429 743.362)">
                                <path id="Контур_141" data-name="Контур 141"
                                    d="M-268.072-534.309l-1.919.028v-8.881a.836.836,0,0,0-.587-.8.836.836,0,0,0-.937.322l-6.813,9.83a.836.836,0,0,0-.051.87.837.837,0,0,0,.75.443l5.965-.088v3.362a.836.836,0,0,0,.836.836.836.836,0,0,0,.836-.836v-3.387l1.943-.029a.836.836,0,0,0,.824-.848A.838.838,0,0,0-268.072-534.309Zm-3.591.053-4.364.064,4.364-6.3Z"
                                    transform="translate(-213.049 -175.549)" fill="#111" />
                                <path id="Контур_142" data-name="Контур 142"
                                    d="M-425.583-662.578a2.911,2.911,0,0,0-.218-1.107l8.472-8.471a.836.836,0,0,0,0-1.183.836.836,0,0,0-1.182,0l-8.347,8.346a2.909,2.909,0,0,0-1.65-.511,2.918,2.918,0,0,0-2.16.954l-6.081-3.511a.837.837,0,0,0-1.142.306.836.836,0,0,0,.306,1.142l6.187,3.572a2.939,2.939,0,0,0-.036.461,2.929,2.929,0,0,0,2.925,2.925A2.929,2.929,0,0,0-425.583-662.578Zm-4.178,0a1.277,1.277,0,0,1,.007-.128.834.834,0,0,0,.2-.235.833.833,0,0,0,.11-.471,1.25,1.25,0,0,1,.935-.419,1.254,1.254,0,0,1,1.253,1.253,1.254,1.254,0,0,1-1.253,1.253A1.254,1.254,0,0,1-429.761-662.578Z"
                                    transform="translate(-72.58 -61.443)" fill="#111" />
                                <path id="Контур_143" data-name="Контур 143"
                                    d="M-363.849-703.992v-1.3a.836.836,0,0,0-.836-.836.836.836,0,0,0-.836.836v1.3a.836.836,0,0,0,.836.836A.836.836,0,0,0-363.849-703.992Z"
                                    transform="translate(-136.403 -32.784)" fill="#111" />
                                <path id="Контур_144" data-name="Контур 144"
                                    d="M-356.524-527.334h-6.718l3.793-3.793c1.909-1.709,2.842-3.682,2.629-5.559a4.728,4.728,0,0,0-2.448-3.588,4.241,4.241,0,0,0-4.673.141,5.46,5.46,0,0,0-2.229,5.028.836.836,0,0,0,.954.7.836.836,0,0,0,.7-.954,3.816,3.816,0,0,1,1.536-3.4,2.582,2.582,0,0,1,2.909-.044,3.015,3.015,0,0,1,1.591,2.31c.151,1.326-.593,2.793-2.093,4.133l-.024.022-.02.02-5.233,5.233a.836.836,0,0,0-.181.911.836.836,0,0,0,.773.516h8.737a.836.836,0,0,0,.836-.836A.836.836,0,0,0-356.524-527.334Z"
                                    transform="translate(-135.789 -178.273)" fill="#111" />
                                <path id="Контур_145" data-name="Контур 145"
                                    d="M-478.64-729.649a.836.836,0,0,0-1.114.4l-2.018,4.239a19.366,19.366,0,0,0-19.316-18.348,19.363,19.363,0,0,0-19.341,19.341,19.341,19.341,0,0,0,14.444,18.715.834.834,0,0,0,.212.027.837.837,0,0,0,.809-.625.836.836,0,0,0-.6-1.02,17.668,17.668,0,0,1-13.194-17.1,17.689,17.689,0,0,1,17.669-17.669,17.693,17.693,0,0,1,17.632,16.515l-2.658-3.361a.836.836,0,0,0-1.174-.137.836.836,0,0,0-.137,1.175l4.59,5.806a.837.837,0,0,0,.75.312.836.836,0,0,0,.661-.472l3.18-6.683A.836.836,0,0,0-478.64-729.649Z"
                                    fill="#111" />
                                <path id="Контур_146" data-name="Контур 146"
                                    d="M-482.363-588.452a.836.836,0,0,0-.836.836.836.836,0,0,0,.836.836h1.3a.836.836,0,0,0,.836-.836.836.836,0,0,0-.836-.836Z"
                                    transform="translate(-32.783 -136.405)" fill="#111" />
                            </g>
                        </svg>