<svg id="fleso-logo" xmlns="http://www.w3.org/2000/svg" width="277" height="54.988" viewBox="0 0 277 54.988">
    <path id="Контур_107" data-name="Контур 107" d="M0,34.827V0H35.22V6.083H8.143v9.173H22.76v6.377H8.143v13.2Z" fill="#ef7e31" />
    <path id="Контур_108" data-name="Контур 108" d="M89.8,41.349V12.8h7.015V36h22.368v5.347Z" transform="translate(-45.751 -6.521)" fill="#111" />
    <path id="Контур_109" data-name="Контур 109" d="M168.5,41.349V12.8h30.609v5.052H175.515v6.23h13.735v4.905H175.515V36h23.938v5.347Z" transform="translate(-85.846 -6.521)" fill="#111" />
    <path id="Контур_110" data-name="Контур 110" d="M280.426,17.952H260.805v6.033H279.4c2.943,0,4.905.491,5.886,1.423s1.521,2.7,1.521,5.3V34.63c0,2.6-.54,4.415-1.57,5.347s-2.992,1.423-5.886,1.423H260.854c-2.943,0-4.954-.491-5.984-1.423s-1.57-2.747-1.57-5.347v-.785l6.181-1.128v3.336h20.995V29.529H261.982c-2.943,0-4.905-.491-5.935-1.423s-1.57-2.747-1.57-5.3V19.62c0-2.551.491-4.317,1.57-5.3s2.992-1.423,5.935-1.423h16.923c2.894,0,4.856.441,5.886,1.373s1.57,2.5,1.619,4.807v.687l-6.033,1.275v-3.09h.049Z" transform="translate(-129.05 -6.572)" fill="#8c1829" />
    <path id="Контур_111" data-name="Контур 111" d="M347.4,19.52c0-2.6.491-4.366,1.521-5.3s2.992-1.423,5.886-1.423h22.074c2.943,0,4.905.491,5.935,1.423.981.932,1.521,2.7,1.521,5.3V34.579c0,2.6-.491,4.415-1.521,5.347s-2.992,1.423-5.886,1.423H354.856c-2.943,0-4.905-.491-5.886-1.423s-1.521-2.747-1.521-5.347V19.52Zm6.965,16.335h23.006V18.049H354.365Z" transform="translate(-176.991 -6.521)" fill="#111" />
    <path id="Контур_112" data-name="Контур 112" d="M451.816,19.425h-1.177a1.329,1.329,0,0,1-1.226-.54,3.354,3.354,0,0,1-.343-1.962V10.007L455.74,0h3.973l-5.739,10.3h3.875a1.412,1.412,0,0,1,1.226.491,3.652,3.652,0,0,1,.343,1.962v4.169a3.725,3.725,0,0,1-.392,2.06c-.245.343-1.03.441-2.4.441Z" transform="translate(-228.773)" fill="#111" />
    <path id="Контур_113" data-name="Контур 113" d="M523.526,17.952H503.905v6.033H522.5c2.943,0,4.905.491,5.886,1.423s1.521,2.7,1.521,5.3V34.63c0,2.6-.54,4.415-1.57,5.347s-2.992,1.423-5.886,1.423H503.954c-2.943,0-4.954-.491-5.984-1.423s-1.57-2.747-1.57-5.347v-.785l6.181-1.128v3.336h20.995V29.529H505.082c-2.943,0-4.905-.491-5.935-1.423s-1.57-2.747-1.57-5.3V19.62c0-2.551.54-4.317,1.57-5.3s2.992-1.423,5.935-1.423h16.923c2.894,0,4.856.441,5.935,1.373s1.619,2.5,1.57,4.807v.687l-6.033,1.275Z" transform="translate(-252.903 -6.572)" fill="#111" />
    <g id="Сгруппировать_69" data-name="Сгруппировать 69" transform="translate(0.294 44.442)">
        <path id="Контур_114" data-name="Контур 114" d="M7.86,92.564v8.584H5.407V92.564H.6V90.7H12.667v1.864Z" transform="translate(-0.6 -90.651)" fill="#111" />
        <path id="Контур_115" data-name="Контур 115" d="M28.9,103.084V94.5h9.222v1.521H31.009v1.864h4.12v1.472h-4.12v2.109H38.22v1.619Z" transform="translate(-15.018 -92.587)" fill="#111" />
        <path id="Контур_116" data-name="Контур 116" d="M54,103.084V94.5h7.7a2.361,2.361,0,0,1,1.521.392,1.619,1.619,0,0,1,.491,1.275v1.913a1.471,1.471,0,0,1-.491,1.275,2.459,2.459,0,0,1-1.521.392H56.06v3.336Zm6.818-7.113H56.06v2.256h4.758a1.379,1.379,0,0,0,.736-.147.611.611,0,0,0,.2-.54v-.883a.611.611,0,0,0-.2-.54A1.164,1.164,0,0,0,60.818,95.972Z" transform="translate(-27.806 -92.587)" fill="#111" />
        <path id="Контур_117" data-name="Контур 117" d="M80,103.084V94.5h7.7a2.361,2.361,0,0,1,1.521.392,1.619,1.619,0,0,1,.491,1.275v1.913a1.471,1.471,0,0,1-.491,1.275,2.459,2.459,0,0,1-1.521.392H82.06v3.336Zm6.818-7.113H82.06v2.256h4.758a1.379,1.379,0,0,0,.736-.147.611.611,0,0,0,.2-.54v-.883a.611.611,0,0,0-.2-.54A1.267,1.267,0,0,0,86.818,95.972Z" transform="translate(-41.052 -92.587)" fill="#111" />
        <path id="Контур_118" data-name="Контур 118" d="M105.9,103.084V94.5h2.06v8.584Z" transform="translate(-54.248 -92.587)" fill="#111" />
        <path id="Контур_119" data-name="Контур 119" d="M125.352,96.07h-5.641v5.347h5.641V99.6l2.109.441v1.03a2.283,2.283,0,0,1-.441,1.619,2.557,2.557,0,0,1-1.766.441h-5.347a2.557,2.557,0,0,1-1.766-.441,2.283,2.283,0,0,1-.441-1.619V96.56a2.283,2.283,0,0,1,.441-1.619,2.557,2.557,0,0,1,1.766-.441h5.3a2.557,2.557,0,0,1,1.766.441,2.283,2.283,0,0,1,.441,1.619v.834l-2.109.294V96.07Z" transform="translate(-60.259 -92.587)" fill="#111" />
        <path id="Контур_120" data-name="Контур 120" d="M144.6,103.084V94.5h2.109v3.237h6.524V94.5h2.109v8.584h-2.109v-3.63h-6.524v3.63Z" transform="translate(-73.964 -92.587)" fill="#111" />
        <path id="Контур_121" data-name="Контур 121" d="M174.3,103.084V94.5H182a2.627,2.627,0,0,1,1.57.392,1.619,1.619,0,0,1,.491,1.275V97.2a1.458,1.458,0,0,1-.392.981,1.845,1.845,0,0,1-1.079.491,2.036,2.036,0,0,1,1.128.54,1.616,1.616,0,0,1,.392,1.079v1.079a1.48,1.48,0,0,1-.687,1.275,3.706,3.706,0,0,1-2.011.441Zm6.72-7.162h-4.709v2.011h4.709a1.379,1.379,0,0,0,.736-.147.517.517,0,0,0,.2-.491v-.834a.517.517,0,0,0-.2-.491A2.43,2.43,0,0,0,181.02,95.923Zm0,3.434h-4.709v2.207h4.709a1.351,1.351,0,0,0,.785-.147c.147-.1.2-.294.2-.589v-.687c0-.294-.049-.491-.2-.589C181.707,99.405,181.413,99.356,181.02,99.356Z" transform="translate(-89.096 -92.587)" fill="#111" />
        <path id="Контур_122" data-name="Контур 122" d="M201,96.46a2.283,2.283,0,0,1,.441-1.619,2.557,2.557,0,0,1,1.766-.441h6.622a2.557,2.557,0,0,1,1.766.441,2.283,2.283,0,0,1,.441,1.619v4.513a2.283,2.283,0,0,1-.441,1.619,2.557,2.557,0,0,1-1.766.441h-6.622a2.557,2.557,0,0,1-1.766-.441,2.283,2.283,0,0,1-.441-1.619Zm2.109,4.905h6.916V96.019h-6.916Z" transform="translate(-102.699 -92.536)" fill="#111" />
        <path id="Контур_123" data-name="Контур 123" d="M231,103.084V94.5h5.788a5.835,5.835,0,0,1,3.826,1.128,3.836,3.836,0,0,1,1.324,3.139,3.893,3.893,0,0,1-1.423,3.237,6.84,6.84,0,0,1-4.268,1.079Zm2.109-1.619h2.7a5.372,5.372,0,0,0,3.09-.638,3.034,3.034,0,0,0,.147-4.12,3.265,3.265,0,0,0-2.256-.638h-3.679Z" transform="translate(-117.983 -92.587)" fill="#111" />
        <path id="Контур_124" data-name="Контур 124" d="M259.7,103.084V94.5h9.222v1.521h-7.113v1.864h4.12v1.472h-4.12v2.109h7.211v1.619Z" transform="translate(-132.605 -92.587)" fill="#111" />
        <path id="Контур_125" data-name="Контур 125" d="M284.9,103.084V94.5h1.423l7.26,5.69V94.5H295.5v8.584h-1.423l-7.26-5.788v5.788Z" transform="translate(-145.443 -92.587)" fill="#111" />
        <path id="Контур_126" data-name="Контур 126" d="M314.3,103.084V94.5h2.109v6.965h6.72v1.619Z" transform="translate(-160.422 -92.587)" fill="#111" />
        <path id="Контур_127" data-name="Контур 127" d="M334.4,103.084l5.1-8.584h2.011l5.151,8.584h-2.355l-1.079-1.864h-5.69l-1.079,1.864Zm4.071-3.434H342.4l-2.011-3.581Z" transform="translate(-170.662 -92.587)" fill="#111" />
        <path id="Контур_128" data-name="Контур 128" d="M363.8,103.084V94.5h1.423l7.26,5.69V94.5H374.4v8.584h-1.423l-7.26-5.788v5.788Z" transform="translate(-185.641 -92.587)" fill="#111" />
        <path id="Контур_129" data-name="Контур 129" d="M393.3,103.084V94.5h5.739a5.835,5.835,0,0,1,3.826,1.128,3.836,3.836,0,0,1,1.324,3.139,3.892,3.892,0,0,1-1.423,3.237,6.839,6.839,0,0,1-4.268,1.079Zm2.109-1.619h2.7a5.371,5.371,0,0,0,3.09-.638,3.034,3.034,0,0,0,.147-4.12,3.265,3.265,0,0,0-2.256-.638h-3.679Z" transform="translate(-200.67 -92.587)" fill="#111" />
        <path id="Контур_130" data-name="Контур 130" d="M449.056,92.513h-7.6v6.622h7.6V96.83h-3.973V95.064h6.328v3.581a2.758,2.758,0,0,1-.54,1.962,2.966,2.966,0,0,1-2.06.54H441.6a2.966,2.966,0,0,1-2.06-.54,2.758,2.758,0,0,1-.54-1.962V93.1a2.843,2.843,0,0,1,.54-1.962,2.966,2.966,0,0,1,2.06-.54h7.211a3.509,3.509,0,0,1,2.06.491,2.641,2.641,0,0,1,.54,1.864v.294l-2.354.441Z" transform="translate(-223.953 -90.6)" fill="#111" />
        <path id="Контур_131" data-name="Контур 131" d="M473.3,103.084V94.5h1.668l4.219,5.1,4.169-5.1h1.668v8.584h-1.962V97.2l-3.826,4.856h-.392L474.968,97.3v5.788Z" transform="translate(-241.428 -92.587)" fill="#111" />
        <path id="Контур_132" data-name="Контур 132" d="M505,103.084V94.5h7.7a2.626,2.626,0,0,1,1.57.392,1.619,1.619,0,0,1,.491,1.275V97.2a1.458,1.458,0,0,1-.392.981,1.845,1.845,0,0,1-1.079.491,2.036,2.036,0,0,1,1.128.54,1.617,1.617,0,0,1,.392,1.079v1.079a1.479,1.479,0,0,1-.687,1.275,3.706,3.706,0,0,1-2.011.441Zm6.769-7.162h-4.66v2.011h4.66a1.378,1.378,0,0,0,.736-.147.516.516,0,0,0,.2-.491v-.834a.517.517,0,0,0-.2-.491A2.824,2.824,0,0,0,511.769,95.923Zm0,3.434h-4.66v2.207h4.66a1.351,1.351,0,0,0,.785-.147c.147-.1.2-.294.2-.589v-.687c0-.294-.049-.491-.2-.589A1.081,1.081,0,0,0,511.769,99.356Z" transform="translate(-257.579 -92.587)" fill="#111" />
        <path id="Контур_133" data-name="Контур 133" d="M533.8,101.148V90.7h2.453v4.071h7.6V90.7h2.453v10.448h-2.453V96.635h-7.6v4.513Z" transform="translate(-272.252 -90.651)" fill="#111" />
    </g>
</svg>
