<svg xmlns="http://www.w3.org/2000/svg" width="40" height="32" viewBox="0 0 40 32"><path d="M39.242,15.067a.468.468,0,0,1,.758.391V32.5a3.882,3.882,0,0,1-3.75,4H3.75A3.882,3.882,0,0,1,0,32.5V15.467a.465.465,0,0,1,.758-.391c1.75,1.449,4.07,3.291,12.039,9.466,1.649,1.284,4.43,3.983,7.2,3.967,2.789.025,5.626-2.733,7.211-3.967,7.969-6.175,10.281-8.025,12.031-9.476ZM20,25.833c1.812.033,4.422-2.433,5.734-3.45C36.1,14.358,36.891,13.658,39.281,11.659A2.044,2.044,0,0,0,40,10.083V8.5a3.882,3.882,0,0,0-3.75-4H3.75A3.882,3.882,0,0,0,0,8.5v1.583a2.059,2.059,0,0,0,.719,1.575c2.391,1.991,3.18,2.7,13.547,10.725C15.578,23.4,18.188,25.867,20,25.833Z" transform="translate(0 -4.5)" fill="#fff"/></svg>